<svg width="70" height="70" xmlns="http://www.w3.org/2000/svg" xmlns:xlink="http://www.w3.org/1999/xlink" fill="none">
 <defs>
  <linearGradient y2="0.41115" y1="0.78368" x2="0.89012" x1="-0.17607" id="youtrack_svg__a">
   <stop stop-color="#905CFB" offset="0"/>
   <stop stop-color="#6677F8" offset="0.165"/>
   <stop stop-color="#3596F5" offset="0.378"/>
   <stop stop-color="#17A9F3" offset="0.54"/>
   <stop stop-color="#0CB0F2" offset="0.632"/>
  </linearGradient>
  <linearGradient y2="0.05378" y1="0.66419" x2="0.02008" x1="0.6574" id="youtrack_svg__b">
   <stop stop-color="#905CFB" offset="0"/>
   <stop stop-color="#A554E6" offset="0.072"/>
   <stop stop-color="#D641B5" offset="0.252"/>
   <stop stop-color="#F43597" offset="0.39"/>
   <stop stop-color="#FF318C" offset="0.468"/>
  </linearGradient>
  <linearGradient y2="-0.2717" y1="0.73726" x2="1.59874" x1="0.1077" id="youtrack_svg__c">
   <stop stop-color="#905CFB" offset="0"/>
   <stop stop-color="#6677F8" offset="0.165"/>
   <stop stop-color="#3596F5" offset="0.378"/>
   <stop stop-color="#17A9F3" offset="0.54"/>
   <stop stop-color="#0CB0F2" offset="0.632"/>
  </linearGradient>
 </defs>
 <g>
  <title>Layer 1</title>
  <path id="svg_1" d="m66.916,47.482c-0.2,-0.2 -13.1024,-12.6028 -13.1024,-12.6028c0,0 9.8018,-10.4023 12.4023,-13.0029c0.5249,-0.525 1.4102,-1.6005 2.0003,-2.6006c3.6007,-6.1014 1.5003,-13.9031 -4.6008,-17.5039c-4.5008,-2.60059 -10.1018,-2.2005 -14.1026,0.80017c-0.7001,0.50012 -1.3002,1.00023 -1.9003,1.60036c-0.3001,0.40009 -13.9025,12.80287 -25.7047,23.60527l22.104,14.0031l-23.2042,26.1059c-1.4002,1.0002 -2.8005,1.6004 -4.3008,1.9004c0.3001,0 1.2003,0.0999 1.5004,-0.0002c4.6008,-0.7001 43.2078,-7.4014 45.1081,-7.8015c2.3004,-0.4001 4.4008,-1.8004 5.701,-3.9009c2.2004,-3.6008 1.2003,-8.1018 -1.9003,-10.6024z" fill="url(#youtrack_svg__a)"/>
  <path id="svg_2" d="m45.9121,30.4781c-0.4001,-2.7006 -1.8003,-4.9011 -3.8007,-6.5014c-2.1004,-1.6004 -18.3033,-18.40414 -20.1036,-20.30457c-2.8005,-2.70061 -6.8013,-4.20094 -10.902,-3.50078c-7.00127,1.00022 -11.90216,7.6017 -10.80196,14.60325c0.50009,3.5008 2.50045,6.5015 5.10092,8.4019c2.60048,2.0004 23.00414,16.0036 24.30444,17.0038c2.1004,1.6004 4.9009,2.5006 7.7014,2.0005c5.501,-1.0003 9.4017,-6.2014 8.5015,-11.7027z" fill="url(#youtrack_svg__b)"/>
  <path id="svg_3" d="m23.0079,67.7866c0.1001,0 23.3043,-26.1058 23.3043,-26.1058l-23.4043,-14.8034c-8.3015,7.6017 -16.00288,14.5033 -17.80321,16.2037c-1.1002,1.0002 -2.2004,2.3005 -3.00054,3.7008c-4.30079,7.4017 -1.80033,16.8038 5.60101,21.1047c3.00054,1.7004 9.80174,3.8009 15.30274,-0.1z" fill="url(#youtrack_svg__c)"/>
  <path opacity="0" id="svg_4" d="m56,14l-42,0l0,42l42,0l0,-42z" fill="#000"/>
 </g>
</svg>
